<?xml version="1.0" encoding="utf-8"?>
<!-- Generator: Adobe Illustrator 27.5.0, SVG Export Plug-In . SVG Version: 6.00 Build 0)  -->
<svg version="1.1" id="Layer_1" xmlns="http://www.w3.org/2000/svg" xmlns:xlink="http://www.w3.org/1999/xlink" x="0px" y="0px"
	 viewBox="0 0 161 161" style="enable-background:new 0 0 161 161;" xml:space="preserve">
<style type="text/css">
	.st0{fill:none;stroke:#C8102E;stroke-width:10;stroke-dasharray:1.8832,21.9711;}
	.st1{fill:none;stroke:#C8102E;stroke-width:2;}
	.st2{clip-path:url(#SVGID_00000029762406421039382560000016429732537751409083_);fill:#C8102E;}
	.st3{fill:#C8102E;}
	.st4{fill:#FFFFFF;}
</style>
<path class="st0" d="M80.5,156.1c41.8,0,75.6-33.9,75.6-75.6S122.3,4.9,80.5,4.9S4.9,38.7,4.9,80.5S38.7,156.1,80.5,156.1z"/>
<g>
	<polygon class="st1" points="80.5,33.1 92,69 127.9,80.5 92,92 80.5,127.9 69,92 33.1,80.5 69,69 	"/>
	<polyline class="st1" points="62.3,71.2 52.9,52.9 71.2,62.3 	"/>
	<polyline class="st1" points="71.2,98.7 52.9,108.1 62.3,89.8 	"/>
	<polyline class="st1" points="98.7,89.8 108.1,108.1 89.8,98.7 	"/>
	<polyline class="st1" points="89.8,62.3 108.1,52.9 98.7,71.2 	"/>
	<circle class="st1" cx="80.5" cy="80.5" r="5.7"/>
	<path class="st1" d="M39.4,78.5c1-21.1,17.9-38,39-39.1"/>
	<path class="st1" d="M78.5,121.6c-21.1-1-38.1-18-39.1-39.1"/>
	<path class="st1" d="M121.6,82.5c-1,21.1-18,38.1-39.1,39.1"/>
	<path class="st1" d="M82.5,39.4c21.1,1,38.1,18,39.1,39.1"/>
</g>
</svg>
