<?xml version="1.0" encoding="utf-8"?>
<!-- Generator: Adobe Illustrator 27.5.0, SVG Export Plug-In . SVG Version: 6.00 Build 0)  -->
<svg version="1.1" id="Layer_1" xmlns="http://www.w3.org/2000/svg" xmlns:xlink="http://www.w3.org/1999/xlink" x="0px" y="0px"
	 viewBox="0 0 161 161" style="enable-background:new 0 0 161 161;" xml:space="preserve">
<style type="text/css">
	.st0{fill:none;stroke:#C8102E;stroke-width:10;stroke-dasharray:1.8832,21.9711;}
	.st1{fill:#C8102E;}
	.st2{fill:none;}
</style>
<path class="st0" d="M80.5,156.1c41.8,0,75.6-33.9,75.6-75.6S122.3,4.9,80.5,4.9S4.9,38.7,4.9,80.5S38.7,156.1,80.5,156.1z"/>
<path class="st1" d="M116.5,65.5c-2.7,0-5.2-1.1-7.2-3c-1.9-1.9-3-4.5-3-7.2s1.1-5.3,3-7.2s4.5-3,7.2-3s5.3,1.1,7.2,3
	c1.9,1.9,3,4.5,3,7.2s-1.1,5.3-3,7.2C121.9,64.5,119.3,65.5,116.5,65.5L116.5,65.5z M116.6,46.9c-2.3,0-4.4,0.9-6,2.5
	s-2.5,3.7-2.5,6c0,4.6,3.9,8.4,8.4,8.4c2.3,0,4.4-0.9,6-2.5s2.5-3.7,2.5-6C125,50.7,121.1,46.9,116.6,46.9L116.6,46.9z"/>
<path class="st1" d="M48.5,65.5c-2.7,0-5.2-1.1-7.2-3c-1.9-1.9-3-4.5-3-7.2s1.1-5.3,3-7.2s4.5-3,7.2-3s5.3,1.1,7.2,3s3,4.5,3,7.2
	s-1.1,5.3-3,7.2C53.9,64.5,51.3,65.5,48.5,65.5L48.5,65.5z M48.6,46.9c-2.3,0-4.4,0.9-6,2.5s-2.5,3.7-2.5,6c0,4.6,3.9,8.4,8.4,8.4
	c2.3,0,4.4-0.9,6-2.5s2.5-3.7,2.5-6C57,50.7,53.1,46.9,48.6,46.9L48.6,46.9z"/>
<g>
	<path class="st2" d="M49,72.4h-0.4h-0.4c-11,0.1-19.9,9.2-19.9,20.2v2.8c0,1.4,1.2,2.6,2.6,2.6h29.5c0.1-0.3,0.2-0.5,0.3-0.8
		c1.2-2.8,2.8-5.3,5-7.5c0.8-0.8,1.6-1.5,2.5-2.2C66,78.9,58.2,72.5,49,72.4z"/>
	<path class="st2" d="M104.5,97.2c0.1,0.3,0.2,0.5,0.3,0.8h29.5c1.4,0,2.6-1.2,2.6-2.6v-2.8c0-11-8.9-20.1-19.9-20.2h-0.4h-0.4
		c-9.2,0.1-17,6.5-19.2,15.1c0.9,0.7,1.7,1.4,2.5,2.2C101.6,91.9,103.3,94.4,104.5,97.2z"/>
	<path class="st1" d="M136.9,84.1c-1.1-2.5-2.6-4.9-4.6-6.9c-4.1-4.1-9.5-6.4-15.3-6.5h-0.8c-5.8,0-11.2,2.4-15.3,6.5
		c-2,2-3.5,4.3-4.6,6.9c-0.3,0.8-0.6,1.5-0.8,2.3c0.5,0.3,1,0.7,1.5,1c2.3-8.6,10-15,19.2-15.1h0.4h0.4c11,0.1,19.9,9.2,19.9,20.2
		v2.8c0,1.4-1.2,2.6-2.6,2.6h-29.5c0.2,0.6,0.4,1.1,0.6,1.7h28.9c2.4,0,4.3-1.9,4.3-4.3v-2.8C138.6,89.6,138,86.8,136.9,84.1z"/>
	<path class="st1" d="M30.9,98c-1.4,0-2.6-1.2-2.6-2.6v-2.8c0-11,8.9-20.1,19.9-20.2h0.4H49c9.2,0.1,17,6.5,19.2,15.1
		c0.5-0.4,1-0.7,1.5-1.1c-0.2-0.8-0.5-1.6-0.8-2.3c-1.1-2.5-2.6-4.9-4.6-6.9c-4.1-4.1-9.5-6.4-15.3-6.5h-0.8
		c-5.8,0-11.2,2.4-15.3,6.5c-2,2-3.5,4.3-4.6,6.9c-1.1,2.7-1.7,5.6-1.7,8.5v2.8c0,2.4,1.9,4.3,4.3,4.3h28.9c0.2-0.6,0.4-1.1,0.6-1.7
		H30.9z"/>
</g>
<path class="st1" d="M82.5,79.2c-2.7,0-5.2-1.1-7.2-3c-1.9-1.9-3-4.5-3-7.2s1.1-5.3,3-7.2s4.5-3,7.2-3s5.3,1.1,7.2,3
	c1.9,1.9,3,4.5,3,7.2s-1.1,5.3-3,7.2C87.9,78.1,85.3,79.2,82.5,79.2L82.5,79.2z M82.6,60.5c-2.3,0-4.4,0.9-6,2.5s-2.5,3.7-2.5,6
	c0,4.6,3.9,8.4,8.4,8.4c2.3,0,4.4-0.9,6-2.5s2.5-3.7,2.5-6C91,64.4,87.1,60.5,82.6,60.5L82.6,60.5z"/>
<path class="st1" d="M64.9,113.4c-2.4,0-4.3-1.9-4.3-4.3v-2.8c0-2.9,0.6-5.8,1.7-8.5c1.1-2.6,2.6-4.9,4.6-6.9
	c4.1-4.1,9.5-6.5,15.3-6.5H83c5.8,0.1,11.2,2.4,15.3,6.5c2,2,3.5,4.4,4.6,6.9c1.1,2.7,1.7,5.5,1.7,8.5v2.8c0,2.4-1.9,4.3-4.3,4.3
	H64.9z M82.2,86c-11,0.1-19.9,9.2-19.9,20.2v2.8c0,1.4,1.2,2.6,2.6,2.6h35.4c1.4,0,2.6-1.2,2.6-2.6v-2.8c0-11-8.9-20.1-19.9-20.2
	h-0.4H82.2z"/>
</svg>
