<svg xmlns="http://www.w3.org/2000/svg" viewBox="0 0 664 430">
  <path fill="none" fill-rule="evenodd" stroke="#C8102E" stroke-linecap="round" stroke-linejoin="round" stroke-width="6" d="M545.815 122.49c-50.041-17.443-104.73-14.462-157.46-8.473-93.23 10.589-186.21 30.168-272.479 67.794-21.863 9.535-43.372 20.295-63.051 33.955-12.697 8.813-47.821 31.426-43.866 50.493 1.545 7.445 8.965 11.87 15.825 14.978 29.82 13.512 62.043 18.086 94.5 19.522 65.69 2.907 131.426-5.371 196.417-15.968a2755.004 2755.004 0 0 0 157.745-30.467c32.188-7.196 64.327-14.994 95.408-26.165 18.001-6.47 36.412-12.308 53.147-21.835 13.993-7.966 38.298-25.096 30.84-44.418"/>
</svg>